<svg width="38" height="38" viewBox="0 0 38 38" fill="none" xmlns="http://www.w3.org/2000/svg">
<path d="M21.6667 15.6667C21.6667 15.4899 21.7369 15.3203 21.8619 15.1953C21.987 15.0702 22.1565 15 22.3334 15C22.5102 15 22.6797 15.0702 22.8048 15.1953C22.9298 15.3203 23 15.4899 23 15.6667C23 15.8435 22.9298 16.013 22.8048 16.1381C22.6797 16.2631 22.5102 16.3333 22.3334 16.3333C22.1565 16.3333 21.987 16.2631 21.8619 16.1381C21.7369 16.013 21.6667 15.8435 21.6667 15.6667Z" fill="#636270"/>
<path fill-rule="evenodd" clip-rule="evenodd" d="M19 15.8335C18.1602 15.8335 17.3547 16.1671 16.7609 16.761C16.167 17.3549 15.8334 18.1603 15.8334 19.0002C15.8334 19.84 16.167 20.6455 16.7609 21.2393C17.3547 21.8332 18.1602 22.1668 19 22.1668C19.8399 22.1668 20.6453 21.8332 21.2392 21.2393C21.8331 20.6455 22.1667 19.84 22.1667 19.0002C22.1667 18.1603 21.8331 17.3549 21.2392 16.761C20.6453 16.1671 19.8399 15.8335 19 15.8335ZM16.8334 19.0002C16.8334 18.4255 17.0616 17.8744 17.468 17.4681C17.8743 17.0618 18.4254 16.8335 19 16.8335C19.5747 16.8335 20.1258 17.0618 20.5321 17.4681C20.9384 17.8744 21.1667 18.4255 21.1667 19.0002C21.1667 19.5748 20.9384 20.1259 20.5321 20.5322C20.1258 20.9386 19.5747 21.1668 19 21.1668C18.4254 21.1668 17.8743 20.9386 17.468 20.5322C17.0616 20.1259 16.8334 19.5748 16.8334 19.0002Z" fill="#636270"/>
<path fill-rule="evenodd" clip-rule="evenodd" d="M22.5054 12.8888C20.1756 12.6305 17.8244 12.6305 15.4947 12.8888C14.1534 13.0388 13.07 14.0954 12.9127 15.4434C12.6363 17.8065 12.6363 20.1937 12.9127 22.5568C13.07 23.9048 14.1527 24.9614 15.4947 25.1114C17.8054 25.3694 20.1947 25.3694 22.5054 25.1114C23.8467 24.9614 24.93 23.9048 25.0874 22.5568C25.3638 20.1937 25.3638 17.8065 25.0874 15.4434C24.93 14.0954 23.8474 13.0388 22.5054 12.8888ZM15.6054 13.8821C17.8616 13.632 20.1385 13.632 22.3947 13.8821C23.2813 13.9821 23.9914 14.6814 24.0947 15.5601C24.362 17.8456 24.362 20.1546 24.0947 22.4401C23.9914 23.3188 23.2813 24.0188 22.3947 24.1174C20.1385 24.3675 17.8616 24.3675 15.6054 24.1174C14.7187 24.0188 14.0087 23.3188 13.9054 22.4401C13.638 20.1546 13.638 17.8456 13.9054 15.5601C14.0087 14.6814 14.7187 13.9814 15.6054 13.8828V13.8821Z" fill="#636270"/>
</svg>
